<svg width="20" height="20" viewBox="0 0 20 20" fill="none" xmlns="http://www.w3.org/2000/svg">
<path d="M10 3.54167C9.61325 3.54167 9.24231 3.69531 8.96882 3.9688C8.69533 4.24229 8.54169 4.61323 8.54169 5V11.5779L8.35085 11.7346C7.93513 12.0748 7.63477 12.5352 7.49094 13.0527C7.34711 13.5703 7.36685 14.1197 7.54745 14.6256C7.72806 15.1315 8.06068 15.5691 8.49976 15.8786C8.93883 16.1881 9.46285 16.3542 10 16.3542C10.5372 16.3542 11.0612 16.1881 11.5003 15.8786C11.9394 15.5691 12.272 15.1315 12.4526 14.6256C12.6332 14.1197 12.6529 13.5703 12.5091 13.0527C12.3653 12.5352 12.0649 12.0748 11.6492 11.7346L11.4584 11.5779V5C11.4584 4.80849 11.4206 4.61885 11.3473 4.44192C11.2741 4.26499 11.1666 4.10422 11.0312 3.9688C10.8958 3.83338 10.735 3.72596 10.5581 3.65268C10.3812 3.57939 10.1915 3.54167 10 3.54167ZM7.50002 5C7.50002 4.33696 7.76341 3.70107 8.23225 3.23223C8.7011 2.76339 9.33698 2.5 10 2.5C10.6631 2.5 11.2989 2.76339 11.7678 3.23223C12.2366 3.70107 12.5 4.33696 12.5 5V11.0963C13.0316 11.5971 13.4005 12.246 13.559 12.9589C13.7175 13.6718 13.6582 14.4159 13.3888 15.0948C13.1194 15.7736 12.6523 16.3559 12.0481 16.7662C11.4439 17.1764 10.7304 17.3958 10 17.3958C9.26968 17.3958 8.55618 17.1764 7.95197 16.7662C7.34775 16.3559 6.88069 15.7736 6.61129 15.0948C6.34189 14.4159 6.28258 13.6718 6.44104 12.9589C6.5995 12.246 6.96843 11.5971 7.50002 11.0963V5ZM11.6667 13.75C11.6667 14.0571 11.5818 14.3582 11.4214 14.6201C11.2611 14.8821 11.0315 15.0946 10.7579 15.2342C10.4844 15.3739 10.1776 15.4353 9.87145 15.4116C9.56526 15.3879 9.27157 15.28 9.0228 15.1C8.77402 14.9199 8.57983 14.6746 8.46167 14.3911C8.3435 14.1077 8.30595 13.7971 8.35317 13.4936C8.40038 13.1902 8.53052 12.9057 8.72922 12.6715C8.92793 12.4373 9.18746 12.2626 9.47919 12.1667V7.60417C9.47919 7.46603 9.53406 7.33356 9.63174 7.23588C9.72941 7.13821 9.86189 7.08333 10 7.08333C10.1382 7.08333 10.2706 7.13821 10.3683 7.23588C10.466 7.33356 10.5209 7.46603 10.5209 7.60417V12.1667C10.8542 12.2764 11.1443 12.4886 11.3501 12.7729C11.5558 13.0571 11.6666 13.3991 11.6667 13.75Z" fill="black"/>
</svg>
