<svg width="40" height="40" viewBox="0 0 40 40" fill="none" xmlns="http://www.w3.org/2000/svg">
<path fill-rule="evenodd" clip-rule="evenodd" d="M19.9983 1.66663C9.87663 1.66663 1.66663 9.87496 1.66663 20C1.66663 28.1 6.91996 34.9716 14.205 37.395C15.1216 37.565 15.455 36.9983 15.455 36.5116C15.455 36.0783 15.44 34.925 15.4316 33.395C10.3316 34.5016 9.25496 30.9366 9.25496 30.9366C8.42163 28.82 7.21996 28.2533 7.21996 28.2533C5.55496 27.1183 7.34496 27.14 7.34496 27.14C9.18663 27.27 10.1533 29.03 10.1533 29.03C11.7883 31.83 14.445 31.0216 15.49 30.5533C15.6566 29.37 16.13 28.5616 16.6533 28.1033C12.5833 27.64 8.30329 26.0666 8.30329 19.0416C8.30329 17.0416 9.01663 15.4033 10.19 14.1216C9.99996 13.6583 9.37163 11.7933 10.37 9.27163C10.37 9.27163 11.9083 8.77663 15.4116 11.15C16.9072 10.7428 18.45 10.5354 20 10.5333C21.5505 10.5344 23.0941 10.7418 24.59 11.15C28.09 8.77663 29.6266 9.26996 29.6266 9.26996C30.6266 11.7933 29.9983 13.6583 29.81 14.1216C30.985 15.4033 31.6933 17.04 31.6933 19.0416C31.6933 26.085 27.4066 27.635 23.3233 28.0883C23.9816 28.655 24.5683 29.7716 24.5683 31.4833C24.5683 33.9333 24.545 35.9116 24.545 36.5116C24.545 37.0033 24.8766 37.5733 25.805 37.395C33.085 34.965 38.3333 28.0983 38.3333 20C38.3333 9.87496 30.1233 1.66663 19.9983 1.66663Z" fill="white"/>
</svg>
