<svg width="16" height="16" viewBox="0 0 16 16" fill="none" xmlns="http://www.w3.org/2000/svg">
<path d="M7.57143 1C9.04906 1 10.4662 1.58699 11.511 2.63183C12.5559 3.67668 13.1429 5.09379 13.1429 6.57143C13.1429 8.92571 11.4886 11.4914 8.22286 14.296C8.04127 14.452 7.80975 14.5377 7.57036 14.5375C7.33097 14.5372 7.0996 14.4512 6.91829 14.2949L6.70229 14.1074C3.58114 11.376 2 8.87314 2 6.57143C2 5.09379 2.58699 3.67668 3.63183 2.63183C4.67668 1.58699 6.09379 1 7.57143 1ZM7.57143 4.42857C7.00311 4.42857 6.45806 4.65434 6.0562 5.0562C5.65434 5.45806 5.42857 6.00311 5.42857 6.57143C5.42857 7.13975 5.65434 7.68479 6.0562 8.08666C6.45806 8.48852 7.00311 8.71429 7.57143 8.71429C8.13975 8.71429 8.68479 8.48852 9.08666 8.08666C9.48852 7.68479 9.71429 7.13975 9.71429 6.57143C9.71429 6.00311 9.48852 5.45806 9.08666 5.0562C8.68479 4.65434 8.13975 4.42857 7.57143 4.42857Z" fill="black"/>
</svg>
