<svg width="30" height="30" viewBox="0 0 30 30" fill="none" xmlns="http://www.w3.org/2000/svg">
<path d="M25.4688 3.75C25.0375 3.75 24.6875 4.1 24.6875 4.53125V25.4688C24.6875 25.676 24.7698 25.8747 24.9163 26.0212C25.0628 26.1677 25.2615 26.25 25.4688 26.25C25.676 26.25 25.8747 26.1677 26.0212 26.0212C26.1677 25.8747 26.25 25.676 26.25 25.4688V4.53125C26.25 4.1 25.9 3.75 25.4688 3.75ZM3.75 5.785C3.75 4.15062 5.58188 3.185 6.93 4.11L20.37 13.3244C21.5469 14.1306 21.5469 15.8681 20.37 16.6744L6.93 25.89C5.58125 26.8125 3.75 25.8481 3.75 24.2144V5.785Z" fill="black"/>
</svg>
