<svg width="30" height="30" viewBox="0 0 30 30" fill="none" xmlns="http://www.w3.org/2000/svg">
<path d="M4.53125 26.25C4.9625 26.25 5.3125 25.9 5.3125 25.4687L5.3125 4.53125C5.3125 4.32405 5.23019 4.12534 5.08368 3.97882C4.93716 3.83231 4.73845 3.75 4.53125 3.75C4.32405 3.75 4.12534 3.83231 3.97882 3.97882C3.83231 4.12534 3.75 4.32405 3.75 4.53125L3.75 25.4687C3.75 25.9 4.1 26.25 4.53125 26.25ZM26.25 24.215C26.25 25.8494 24.4181 26.815 23.07 25.89L9.63 16.6756C8.45312 15.8694 8.45312 14.1319 9.63 13.3256L23.07 4.11C24.4187 3.1875 26.25 4.15187 26.25 5.78563L26.25 24.215Z" fill="black"/>
</svg>
