<svg width="24" height="24" viewBox="0 0 24 24" fill="none" xmlns="http://www.w3.org/2000/svg">
<path fill-rule="evenodd" clip-rule="evenodd" d="M4.99995 11C4.99995 10.2121 5.15515 9.43185 5.45668 8.7039C5.75821 7.97595 6.20016 7.31451 6.75731 6.75736C7.31447 6.20021 7.9759 5.75825 8.70385 5.45672C9.43181 5.15519 10.212 5 11 5C11.7879 5 12.5681 5.15519 13.2961 5.45672C14.024 5.75825 14.6854 6.20021 15.2426 6.75736C15.7997 7.31451 16.2417 7.97595 16.5432 8.7039C16.8448 9.43185 17 10.2121 17 11C17 12.5913 16.3678 14.1174 15.2426 15.2426C14.1174 16.3679 12.5913 17 11 17C9.40866 17 7.88253 16.3679 6.75731 15.2426C5.6321 14.1174 4.99995 12.5913 4.99995 11ZM11 3C9.72681 3.00018 8.4721 3.30422 7.3401 3.88684C6.20809 4.46946 5.23148 5.31384 4.49144 6.3498C3.75139 7.38577 3.26929 8.5834 3.08518 9.84315C2.90108 11.1029 3.0203 12.3884 3.43293 13.5928C3.84556 14.7973 4.53969 15.8858 5.45762 16.768C6.37556 17.6502 7.49079 18.3006 8.71063 18.6651C9.93048 19.0296 11.2197 19.0977 12.4712 18.8638C13.7226 18.6298 14.9002 18.1006 15.906 17.32L19.293 20.707C19.4816 20.8892 19.7342 20.99 19.9964 20.9877C20.2586 20.9854 20.5094 20.8802 20.6948 20.6948C20.8802 20.5094 20.9853 20.2586 20.9876 19.9964C20.9899 19.7342 20.8891 19.4816 20.707 19.293L17.32 15.906C18.2381 14.7235 18.8059 13.307 18.9589 11.8178C19.112 10.3285 18.844 8.82619 18.1856 7.48165C17.5272 6.1371 16.5047 5.00429 15.2344 4.21202C13.9642 3.41976 12.4971 2.99983 11 3ZM11 15C12.0608 15 13.0782 14.5786 13.8284 13.8284C14.5785 13.0783 15 12.0609 15 11C15 9.93913 14.5785 8.92172 13.8284 8.17157C13.0782 7.42143 12.0608 7 11 7C9.93909 7 8.92167 7.42143 8.17153 8.17157C7.42138 8.92172 6.99995 9.93913 6.99995 11C6.99995 12.0609 7.42138 13.0783 8.17153 13.8284C8.92167 14.5786 9.93909 15 11 15Z" fill="black"/>
</svg>
