<svg width="24" height="24" viewBox="0 0 24 24" fill="none" xmlns="http://www.w3.org/2000/svg">
<path d="M1 13.857V10.143C1 9.61258 1.21071 9.10387 1.58579 8.7288C1.96086 8.35373 2.46957 8.14301 3 8.14301H5.9C6.09552 8.14296 6.28674 8.0856 6.45 7.97801L12.45 4.02201C12.6008 3.92273 12.7756 3.86611 12.9559 3.85815C13.1362 3.85019 13.3154 3.89119 13.4743 3.9768C13.6332 4.06241 13.766 4.18943 13.8585 4.3444C13.9511 4.49937 14 4.67651 14 4.85701V19.143C14 19.3235 13.9511 19.5007 13.8585 19.6556C13.766 19.8106 13.6332 19.9376 13.4743 20.0232C13.3154 20.1088 13.1362 20.1498 12.9559 20.1419C12.7756 20.1339 12.6008 20.0773 12.45 19.978L6.45 16.022C6.28674 15.9144 6.09552 15.8571 5.9 15.857H3C2.46957 15.857 1.96086 15.6463 1.58579 15.2712C1.21071 14.8962 1 14.3874 1 13.857Z" stroke="black" stroke-width="2"/>
<path d="M17.5 7.5C17.5 7.5 19 9 19 11.5C19 14 17.5 15.5 17.5 15.5M20.5 4.5C20.5 4.5 23 7 23 11.5C23 16 20.5 18.5 20.5 18.5" stroke="black" stroke-width="2" stroke-linecap="round" stroke-linejoin="round"/>
</svg>
