<svg width="90" height="90" viewBox="0 0 90 90" fill="none" xmlns="http://www.w3.org/2000/svg">
<path d="M8.5 45H15M75 45H82M18.5 18.5L23.625 23.625M71.5 18.5L66.375 23.625M30 45C30 41.0218 31.5804 37.2064 34.3934 34.3934C37.2064 31.5804 41.0218 30 45 30C48.9782 30 52.7936 31.5804 55.6066 34.3934C58.4196 37.2064 60 41.0218 60 45M45 15V8M48.75 60L56.25 78.75H60L67.5 60M22.5 60V71.25C22.5 73.2391 23.2902 75.1468 24.6967 76.5533C26.1032 77.9598 28.0109 78.75 30 78.75C31.9891 78.75 33.8968 77.9598 35.3033 76.5533C36.7098 75.1468 37.5 73.2391 37.5 71.25V60" stroke="black" stroke-width="5" stroke-linecap="round" stroke-linejoin="round"/>
</svg>
