<svg width="50" height="50" viewBox="0 0 50 50" fill="none" xmlns="http://www.w3.org/2000/svg">
<path d="M25 18.75C26.6576 18.75 28.2474 19.4085 29.4195 20.5806C30.5916 21.7527 31.25 23.3424 31.25 25C31.25 26.6576 30.5916 28.2473 29.4195 29.4194C28.2474 30.5915 26.6576 31.25 25 31.25C23.3424 31.25 21.7527 30.5915 20.5806 29.4194C19.4085 28.2473 18.75 26.6576 18.75 25C18.75 23.3424 19.4085 21.7527 20.5806 20.5806C21.7527 19.4085 23.3424 18.75 25 18.75ZM25 9.375C35.4167 9.375 44.3125 15.8542 47.9167 25C44.3125 34.1458 35.4167 40.625 25 40.625C14.5834 40.625 5.68754 34.1458 2.08337 25C5.68754 15.8542 14.5834 9.375 25 9.375ZM6.62504 25C8.3089 28.4381 10.9236 31.3349 14.1719 33.3609C17.4201 35.387 21.1717 36.4611 25 36.4611C28.8284 36.4611 32.5799 35.387 35.8282 33.3609C39.0765 31.3349 41.6912 28.4381 43.375 25C41.6912 21.5619 39.0765 18.6651 35.8282 16.6391C32.5799 14.613 28.8284 13.5389 25 13.5389C21.1717 13.5389 17.4201 14.613 14.1719 16.6391C10.9236 18.6651 8.3089 21.5619 6.62504 25Z" fill="black"/>
</svg>
