<svg width="20" height="20" viewBox="0 0 20 20" fill="none" xmlns="http://www.w3.org/2000/svg">
<path d="M16.12 9.09333C15.7558 6.225 13.3 4 10.3333 4C8.03667 4 6.04167 5.3425 5.13083 7.45833C3.34083 7.99333 2 9.68333 2 11.5C2 13.7975 3.86917 15.6667 6.16667 15.6667H15.3333C17.1717 15.6667 18.6667 14.1717 18.6667 12.3333C18.6654 11.5863 18.4139 10.8613 17.9522 10.274C17.4906 9.68673 16.8455 9.27105 16.12 9.09333ZM15.3333 14H6.16667C4.78833 14 3.66667 12.8783 3.66667 11.5C3.66667 10.33 4.66583 9.20333 5.89417 8.9875L6.37833 8.9025L6.53833 8.4375C7.12417 6.72833 8.57917 5.66667 10.3333 5.66667C12.6308 5.66667 14.5 7.53583 14.5 9.83333V10.6667H15.3333C16.2525 10.6667 17 11.4142 17 12.3333C17 13.2525 16.2525 14 15.3333 14Z" fill="black"/>
</svg>
