<svg width="50" height="50" viewBox="0 0 50 50" fill="none" xmlns="http://www.w3.org/2000/svg">
<path d="M25 44.7916C20.382 44.7916 16.4493 43.1944 13.2021 40C9.9549 36.8055 8.33199 32.9166 8.33337 28.3333C8.33337 26.1458 8.75907 24.0541 9.61046 22.0583C10.4618 20.0625 11.6681 18.3 13.2292 16.7708L25 5.20831L36.7709 16.7708C38.3334 18.2986 39.5403 20.0611 40.3917 22.0583C41.2431 24.0555 41.6681 26.1472 41.6667 28.3333C41.6667 32.9166 40.0438 36.8055 36.798 40C33.5521 43.1944 29.6195 44.7916 25 44.7916ZM12.5 28.3333H37.5C37.5 26.7014 37.1875 25.1479 36.5625 23.6729C35.9375 22.1979 35.0348 20.9041 33.8542 19.7916L25 11.0416L16.1459 19.7916C14.9653 20.9028 14.0625 22.1965 13.4375 23.6729C12.8125 25.1493 12.5 26.7028 12.5 28.3333Z" fill="black"/>
</svg>
