<svg width="20" height="20" viewBox="0 0 20 20" fill="none" xmlns="http://www.w3.org/2000/svg">
<path d="M9.57143 3C11.0491 3 12.4662 3.58699 13.511 4.63183C14.5559 5.67668 15.1429 7.09379 15.1429 8.57143C15.1429 10.9257 13.4886 13.4914 10.2229 16.296C10.0413 16.452 9.80975 16.5377 9.57036 16.5375C9.33097 16.5372 9.0996 16.4512 8.91829 16.2949L8.70229 16.1074C5.58114 13.376 4 10.8731 4 8.57143C4 7.09379 4.58699 5.67668 5.63183 4.63183C6.67668 3.58699 8.09379 3 9.57143 3ZM9.57143 6.42857C9.00311 6.42857 8.45806 6.65434 8.0562 7.0562C7.65434 7.45806 7.42857 8.00311 7.42857 8.57143C7.42857 9.13975 7.65434 9.68479 8.0562 10.0867C8.45806 10.4885 9.00311 10.7143 9.57143 10.7143C10.1397 10.7143 10.6848 10.4885 11.0867 10.0867C11.4885 9.68479 11.7143 9.13975 11.7143 8.57143C11.7143 8.00311 11.4885 7.45806 11.0867 7.0562C10.6848 6.65434 10.1397 6.42857 9.57143 6.42857Z" fill="black"/>
</svg>
