<svg width="50" height="50" viewBox="0 0 50 50" fill="none" xmlns="http://www.w3.org/2000/svg">
<path d="M6.25 16.6667H19.7917C20.8218 16.6667 21.8288 16.3612 22.6853 15.7889C23.5418 15.2166 24.2093 14.4032 24.6035 13.4515C24.9977 12.4998 25.1009 11.4526 24.8999 10.4422C24.699 9.43192 24.2029 8.50389 23.4745 7.77549C22.7461 7.04709 21.8181 6.55104 20.8078 6.35008C19.7974 6.14911 18.7502 6.25226 17.7985 6.64646C16.8468 7.04067 16.0334 7.70823 15.4611 8.56474C14.8888 9.42125 14.5833 10.4282 14.5833 11.4583V12.2021M8.33333 29.1667H38.5417C39.9838 29.1667 41.3936 29.5943 42.5927 30.3955C43.7918 31.1968 44.7264 32.3356 45.2783 33.6679C45.8302 35.0003 45.9746 36.4664 45.6932 37.8809C45.4119 39.2953 44.7174 40.5946 43.6977 41.6143C42.6779 42.6341 41.3786 43.3285 39.9642 43.6099C38.5498 43.8912 37.0836 43.7468 35.7513 43.195C34.4189 42.6431 33.2801 41.7085 32.4789 40.5094C31.6776 39.3103 31.25 37.9005 31.25 36.4583V35.4167" stroke="black" stroke-width="2" stroke-linecap="round"/>
<path opacity="0.5" d="M4.16663 22.9166H38.5416C39.9838 22.9166 41.3936 22.489 42.5927 21.6878C43.7918 20.8866 44.7264 19.7478 45.2782 18.4154C45.8301 17.083 45.9745 15.6169 45.6932 14.2024C45.4118 12.788 44.7174 11.4888 43.6976 10.469C42.6779 9.44924 41.3786 8.75477 39.9642 8.47342C38.5497 8.19207 37.0836 8.33647 35.7512 8.88836C34.4189 9.44025 33.28 10.3748 32.4788 11.5739C31.6776 12.7731 31.25 14.1828 31.25 15.625V16.6666" stroke="black" stroke-width="2" stroke-linecap="round"/>
</svg>
